<svg width="120" height="120" viewBox="0 0 120 120" fill="none" xmlns="http://www.w3.org/2000/svg">
  <!-- Cute Christmas Elf -->
  <circle cx="60" cy="55" r="25" fill="#ffd4a3"/>
  <ellipse cx="50" cy="50" rx="3" ry="4" fill="#3a3a3a"/>
  <ellipse cx="70" cy="50" rx="3" ry="4" fill="#3a3a3a"/>
  <path d="M 55 60 Q 60 63 65 60" stroke="#ff6b6b" stroke-width="2" fill="none"/>
  <circle cx="52" cy="58" r="4" fill="#ffc0c0"/>
  <circle cx="68" cy="58" r="4" fill="#ffc0c0"/>
  <!-- Hat -->
  <path d="M 35 40 L 60 10 L 85 40 Z" fill="#dc2626"/>
  <ellipse cx="60" cy="40" rx="28" ry="7" fill="#dc2626"/>
  <circle cx="62" cy="12" r="6" fill="#fef2f2"/>
  <ellipse cx="45" cy="42" rx="4" ry="8" fill="#ffd4a3" transform="rotate(-15 45 42)"/>
  <ellipse cx="75" cy="42" rx="4" ry="8" fill="#ffd4a3" transform="rotate(15 75 42)"/>
  <!-- Body -->
  <ellipse cx="60" cy="85" rx="18" ry="22" fill="#16a34a"/>
  <circle cx="58" cy="80" r="3" fill="#fef2f2"/>
  <circle cx="58" cy="90" r="3" fill="#fef2f2"/>
  <!-- Belt -->
  <rect x="45" y="82" width="30" height="5" fill="#2a2a2a"/>
  <rect x="57" y="80" width="6" height="9" fill="#fbbf24"/>
</svg>
